<?xml version="1.0" standalone="no"?>
<!DOCTYPE svg PUBLIC "-//W3C//DTD SVG 20010904//EN"
 "http://www.w3.org/TR/2001/REC-SVG-20010904/DTD/svg10.dtd">
<svg version="1.0" xmlns="http://www.w3.org/2000/svg"
 width="348.000000pt" height="348.000000pt" viewBox="0 0 348.000000 348.000000"
 preserveAspectRatio="xMidYMid meet">
<metadata>
Created by potrace 1.11, written by Peter Selinger 2001-2013
</metadata>
<g transform="translate(0.000000,348.000000) scale(0.100000,-0.100000)"
fill="#000000" stroke="none">
<path d="M783 1905 l-1 -845 427 0 426 0 -2 -361 -2 -361 322 5 c177 2 331 7
342 10 11 2 40 8 65 13 25 4 47 8 50 9 26 5 125 43 165 63 106 52 186 119 250
207 83 117 131 242 150 400 14 112 5 338 -16 391 -4 13 -7 24 -4 24 7 0 -41
133 -65 180 -110 217 -320 353 -595 386 -33 4 -342 7 -687 7 l-628 -1 0 273 0
273 365 -1 c201 0 368 3 372 7 5 4 8 43 9 87 l1 79 -472 0 -472 0 0 -845z
m1520 -60 c145 -29 230 -73 314 -163 109 -116 161 -286 156 -517 -5 -239 -88
-424 -235 -528 -64 -45 -143 -82 -191 -91 -15 -3 -35 -7 -45 -10 -46 -14 -92
-18 -274 -23 l-198 -6 0 676 0 676 23 3 c65 9 379 -3 450 -17z m-673 -18 c3
-188 0 -581 -5 -585 -3 -3 -149 -6 -325 -7 l-320 0 0 312 0 312 325 0 325 0 0
-32z"/>
</g>
</svg>
